<?xml version="1.0" encoding="UTF-8" standalone="no"?>
<!DOCTYPE svg PUBLIC "-//W3C//DTD SVG 1.1//EN" "http://www.w3.org/Graphics/SVG/1.1/DTD/svg11.dtd">
<svg width="100%" height="100%" viewBox="0 0 180 180" version="1.1" xmlns="http://www.w3.org/2000/svg" xmlns:xlink="http://www.w3.org/1999/xlink" xml:space="preserve" xmlns:serif="http://www.serif.com/" style="fill-rule:evenodd;clip-rule:evenodd;stroke-linejoin:round;stroke-miterlimit:2;">
    <g transform="matrix(1,0,0,1,-8223.31,-16283.9)">
        <g id="Original">
        </g>
        <g transform="matrix(1,0,0,1,8313.31,16373.9)">
            <g transform="matrix(1,0,0,1,-90,-90)">
                <clipPath id="_clip1">
                    <rect x="0" y="0" width="180" height="180"/>
                </clipPath>
                <g clip-path="url(#_clip1)">
                    <g transform="matrix(0.0428776,0,0,0.0428776,-21127.7,257.84)">
                        <g>
                            <g transform="matrix(1,0,0,1,493028,-15855.4)">
                                <rect x="-284" y="9842" width="4198" height="4198" style="fill:none;"/>
                            </g>
                            <g transform="matrix(1.25458,-2.78573e-16,2.78573e-16,1.25458,489151,-6453.43)">
                                <path d="M4093.27,2319.55L3256.47,2319.55L4067.5,914.802L4485.9,1639.5L4093.27,2319.55ZM4588.1,1639.5L5006.5,914.802L5817.53,2319.55L4980.73,2319.55L4588.1,1639.5ZM4929.63,2408.06L5348.03,3132.75L3725.97,3132.75L4144.37,2408.06L4929.63,2408.06Z" style="fill:white;"/>
                            </g>
                        </g>
                    </g>
                </g>
            </g>
        </g>
    </g>
</svg>
